<svg xmlns="http://www.w3.org/2000/svg" xmlns:xlink="http://www.w3.org/1999/xlink" id="Ebene_1" x="0" y="0" version="1.1" viewBox="0 0 1451.3 1451.3" style="enable-background:new 0 0 1451.3 1451.3" xml:space="preserve"><style type="text/css">.st0{fill:#f8c00f}.st1{fill:#599ac6}.st2{fill:#ec7d30}.st3{fill:#a8cf8d}.st4{fill:#e62137}</style><rect id="XMLID_61_" width="712.5" height="44.7" x="368.4" y="239.3"/><g id="XMLID_70_"><rect id="XMLID_57_" width="139.7" height="44.7" x="368.4" y="366.7"/><path id="XMLID_44_" d="M1050.2,422.6H591.9c-18.5,0-33.5-15-33.5-33.5s15-33.5,33.5-33.5h458.3 c18.5,0,33.5,15,33.5,33.5S1068.7,422.6,1050.2,422.6z" class="st0"/></g><g id="XMLID_69_"><rect id="XMLID_43_" width="289" height="44.7" x="790.3" y="494.1"/><path id="XMLID_42_" d="M706.5,550l-314.4,0c-18.5,0-33.5-15-33.5-33.5c0-18.5,15-33.5,33.5-33.5l314.4,0 c18.5,0,33.5,15,33.5,33.5C740,535,725,550,706.5,550z" class="st1"/></g><g id="XMLID_68_"><rect id="XMLID_41_" width="182.3" height="44.7" x="368.4" y="621.5"/><path id="XMLID_40_" d="M1050.2,677.4H634.5c-18.5,0-33.5-15-33.5-33.5s15-33.5,33.5-33.5h415.6 c18.5,0,33.5,15,33.5,33.5S1068.7,677.4,1050.2,677.4z" class="st2"/></g><g id="XMLID_29_"><rect id="XMLID_39_" width="465.2" height="44.7" x="368.4" y="748.9"/><path id="XMLID_38_" d="M1050.2,804.8H917.4c-18.5,0-33.5-15-33.5-33.5s15-33.5,33.5-33.5h132.7 c18.5,0,33.5,15,33.5,33.5S1068.7,804.8,1050.2,804.8z" class="st3"/></g><g id="XMLID_28_"><rect id="XMLID_37_" width="299" height="44.7" x="368.4" y="876.3"/><path id="XMLID_36_" d="M1050.2,932.2h-299c-18.5,0-33.5-15-33.5-33.5s15-33.5,33.5-33.5h299c18.5,0,33.5,15,33.5,33.5 S1068.7,932.2,1050.2,932.2z" class="st4"/></g><path id="XMLID_31_" d="M1185,1347.4H264.2c-12.3,0-22.4-10-22.4-22.4V123.6c0-12.3,10-22.4,22.4-22.4H1185	c12.3,0,22.4,10,22.4,22.4v1201.4C1207.4,1337.4,1197.3,1347.4,1185,1347.4z M286.6,1302.7h876.1V146H286.6V1302.7z"/><rect id="XMLID_71_" width="566.4" height="44.7" x="368.4" y="1003.7"/></svg>